<svg width="24" height="24" viewBox="0 0 24 24" fill="none" xmlns="http://www.w3.org/2000/svg">
<path d="M12 21.75C17.3848 21.75 21.75 17.3848 21.75 12C21.75 6.61522 17.3848 2.25 12 2.25C6.61522 2.25 2.25 6.61522 2.25 12C2.25 17.3848 6.61522 21.75 12 21.75Z" fill="#20B154" stroke="#03491C" stroke-width="1.5"/>
<path fill-rule="evenodd" clip-rule="evenodd" d="M13.5006 17.8949C13.9112 17.8949 14.2066 18.5249 13.8179 18.6561C13.1607 18.8793 12.4586 19 11.7295 19C8.01281 19 5 15.8662 5 12C5 8.13381 8.01281 5 11.7299 5C12.4586 5 13.1607 5.12075 13.8183 5.34344C14.2071 5.47556 13.9112 6.10512 13.5006 6.10512C10.3706 6.10512 7.83369 8.74456 7.83369 12C7.83369 15.2554 10.3706 17.8949 13.5006 17.8949Z" fill="white"/>
</svg>
