<svg id="svg-phone" viewBox="0 0 30 30" fill="none" xmlns="http://www.w3.org/2000/svg">
<path d="M19.5247 11.0667C18.6547 12.8787 17.4687 14.577 15.9667 16.079C14.4647 17.581 12.7664 18.7669 10.9544 19.6369C10.7985 19.7118 10.7206 19.7492 10.622 19.7779C10.2716 19.8801 9.84123 19.8067 9.54444 19.5942C9.46092 19.5344 9.38948 19.463 9.24659 19.3201C8.80958 18.8831 8.59108 18.6646 8.37136 18.5217C7.54274 17.983 6.47452 17.983 5.6459 18.5217C5.42618 18.6646 5.20768 18.8831 4.77067 19.3201L4.52708 19.5637C3.86278 20.228 3.53063 20.5601 3.3502 20.9168C2.99136 21.6263 2.99136 22.4641 3.3502 23.1736C3.53063 23.5303 3.86278 23.8624 4.52708 24.5268L4.72413 24.7238C5.38615 25.3858 5.71717 25.7168 6.16721 25.9696C6.66659 26.2502 7.4422 26.4519 8.01498 26.4502C8.53117 26.4486 8.88395 26.3485 9.5895 26.1482C13.3812 25.072 16.9592 23.0414 19.9442 20.0565C22.9292 17.0715 24.9597 13.4935 26.036 9.70179C26.2362 8.99624 26.3363 8.64346 26.3379 8.12727C26.3396 7.5545 26.1379 6.77888 25.8574 6.2795C25.6045 5.82946 25.2735 5.49844 24.6115 4.83642L24.4145 4.63937C23.7502 3.97507 23.418 3.64292 23.0613 3.46249C22.3518 3.10365 21.514 3.10365 20.8045 3.46249C20.4478 3.64292 20.1157 3.97507 19.4514 4.63937L19.2078 4.88296C18.7708 5.31997 18.5523 5.53847 18.4094 5.75819C17.8707 6.58681 17.8707 7.65503 18.4094 8.48365C18.5523 8.70337 18.7708 8.92187 19.2078 9.35888C19.3507 9.50177 19.4221 9.57321 19.4819 9.65673C19.6944 9.95352 19.7678 10.3838 19.6657 10.7343C19.6369 10.8329 19.5995 10.9108 19.5247 11.0667Z" stroke="currentColor" stroke-width="2" stroke-linecap="round" stroke-linejoin="round"/>
</svg>