<svg id="svg-whatsapp" viewBox="0 0 40 40" fill="none" xmlns="http://www.w3.org/2000/svg">
<path d="M20 0C8.95601 0 0 8.95601 0 20C0 31.044 8.95601 40 20 40C31.044 40 40 31.044 40 20C40 8.95601 31.044 0 20 0ZM20.4239 31.6445C20.4236 31.6445 20.4242 31.6445 20.4239 31.6445H20.419C18.4155 31.6437 16.4469 31.1414 14.6985 30.188L8.35297 31.8521L10.0513 25.6509C9.00359 23.8363 8.45242 21.7777 8.45336 19.6686C8.45609 13.0707 13.826 7.70297 20.4239 7.70297C23.6258 7.70414 26.6315 8.95047 28.8913 11.2122C31.1515 13.4741 32.3953 16.4807 32.3941 19.678C32.3913 26.2762 27.0209 31.6446 20.4238 31.6446L20.4239 31.6445Z" fill="#31D300"/>
<path d="M20.4302 9.72437C14.9422 9.72437 10.4791 14.1857 10.4766 19.6697C10.476 21.549 11.0021 23.3791 11.9979 24.9626L12.2344 25.339L11.2291 29.0093L14.9948 28.0218L15.3582 28.2373C16.8855 29.1436 18.6367 29.623 20.422 29.6237H20.4259C25.9096 29.6237 30.3728 25.1619 30.3752 19.6776C30.3762 17.0198 29.3423 14.5211 27.4639 12.6412C25.5855 10.7613 23.0873 9.72522 20.4302 9.72437ZM26.2823 23.9459C26.0329 24.6441 24.8381 25.2816 24.2635 25.3677C23.748 25.4445 23.0962 25.4766 22.3797 25.2492C21.9451 25.1113 21.3881 24.9273 20.6744 24.6194C17.6741 23.3242 15.7146 20.3042 15.5651 20.1045C15.4155 19.905 14.3437 18.4832 14.3437 17.0113C14.3437 15.5398 15.1164 14.8162 15.3905 14.5171C15.6648 14.2177 15.989 14.143 16.1882 14.143C16.3875 14.143 16.5871 14.1448 16.7614 14.1534C16.9451 14.1625 17.1916 14.0835 17.4343 14.6666C17.6836 15.2655 18.2818 16.7369 18.3566 16.8866C18.4313 17.0363 18.481 17.2109 18.3816 17.4105C18.2818 17.6101 17.9503 18.0407 17.6339 18.4332C17.5011 18.5976 17.3281 18.7441 17.5027 19.0435C17.6769 19.3426 18.2775 20.3219 19.1665 21.1148C20.3091 22.1334 21.2727 22.449 21.5719 22.5988C21.8706 22.7484 22.0452 22.7233 22.2198 22.5241C22.394 22.3244 22.9674 21.6509 23.1666 21.3516C23.366 21.0522 23.5655 21.1022 23.8396 21.202C24.114 21.3015 25.5843 22.0251 25.8834 22.1746C26.1824 22.3244 26.3818 22.3992 26.4565 22.5241C26.5316 22.6488 26.5316 23.2473 26.2823 23.9459Z" fill="#31D300"/>
</svg>