<svg viewBox="0 0 24 24" fill="none" xmlns="http://www.w3.org/2000/svg">
<g clip-path="url(#clip0_637_60)">
<path d="M12 0C5.37361 0 0 5.37361 0 12C0 18.6264 5.37361 24 12 24C18.6264 24 24 18.6264 24 12C24 5.37361 18.6264 0 12 0ZM12.2543 18.9867H12.2514C11.0493 18.9862 9.86813 18.6848 8.81911 18.1128L5.01178 19.1113L6.03075 15.3906C5.40216 14.3018 5.07145 13.0666 5.07202 11.8012C5.07366 7.84242 8.29561 4.62178 12.2543 4.62178C14.1755 4.62248 15.9789 5.37028 17.3348 6.72731C18.6909 8.08449 19.4372 9.88842 19.4365 11.8068C19.4348 15.7657 16.2126 18.9867 12.2543 18.9867Z" fill="#31D300"/>
<path d="M12.2543 18.9867H12.2514C11.0493 18.9862 9.86813 18.6848 8.81911 18.1128L5.01178 19.1113L6.03075 15.3906C5.40216 14.3018 5.07145 13.0666 5.07202 11.8012C5.07366 7.84242 8.29561 4.62178 12.2543 4.62178C14.1755 4.62248 15.9789 5.37028 17.3348 6.72731C18.6909 8.08449 19.4372 9.88842 19.4365 11.8068C19.4348 15.7657 16.2126 18.9867 12.2543 18.9867Z" fill="white"/>
<path d="M12.1745 5.82812C8.86489 5.82812 6.17338 8.51847 6.17188 11.8255C6.17155 12.9588 6.48881 14.0624 7.08932 15.0174L7.23193 15.2443L6.62572 17.4576L8.8966 16.8621L9.11577 16.9921C10.0368 17.5386 11.0929 17.8277 12.1695 17.8281H12.1719C15.4789 17.8281 18.1704 15.1375 18.1719 11.8303C18.1724 10.2276 17.5489 8.72072 16.4162 7.58711C15.2834 6.45345 13.7769 5.82864 12.1745 5.82812ZM15.7036 14.4042C15.5532 14.8252 14.8327 15.2097 14.4862 15.2616C14.1753 15.308 13.7822 15.3273 13.3501 15.1902C13.088 15.107 12.7521 14.9961 12.3217 14.8104C10.5124 14.0293 9.33071 12.2082 9.24053 12.0877C9.15036 11.9674 8.504 11.11 8.504 10.2224C8.504 9.33502 8.96996 8.89871 9.13528 8.71832C9.30069 8.53778 9.49617 8.4927 9.61631 8.4927C9.7365 8.4927 9.85687 8.49383 9.96198 8.49896C10.0727 8.50448 10.2214 8.45685 10.3678 8.80849C10.5181 9.16961 10.8789 10.057 10.924 10.1472C10.969 10.2375 10.999 10.3428 10.939 10.4632C10.8789 10.5835 10.679 10.8432 10.4881 11.0799C10.4081 11.179 10.3037 11.2674 10.409 11.4479C10.5141 11.6283 10.8763 12.2188 11.4124 12.6969C12.1014 13.3112 12.6826 13.5015 12.863 13.5919C13.0431 13.6821 13.1484 13.6669 13.2537 13.5468C13.3587 13.4264 13.7046 13.0203 13.8247 12.8397C13.9449 12.6592 14.0653 12.6894 14.2305 12.7496C14.396 12.8095 15.2827 13.2459 15.463 13.3361C15.6434 13.4264 15.7636 13.4715 15.8087 13.5468C15.8539 13.622 15.8539 13.983 15.7036 14.4042Z" fill="#31D300"/>
</g>
<defs>
<clipPath id="clip0_637_60">
<rect width="24" height="24" fill="white"/>
</clipPath>
</defs>
</svg>
