<svg width="60" height="60" viewBox="0 0 60 60" fill="none" xmlns="http://www.w3.org/2000/svg">
<path d="M25.1954 35.0719C29.5316 39.3997 34.9835 40.7661 34.9835 40.7661L39.7647 35.8032C41.3917 34.1794 43.2589 34.538 45.6615 35.7831L48.1951 37.2062C49.9171 38.1735 51.0045 39.9905 51.0004 41.9657L51.0001 42.0119C50.9889 43.5102 50.3775 45.2153 48.8648 46.728C45.173 50.4199 40.1169 51.0352 35.9623 50.9985C28.9518 50.9366 22.6862 46.4434 18.0768 41.8339C13.4674 37.2245 9.06252 31.048 9.00059 24.0374C8.96384 19.8828 9.55033 14.8268 13.2421 11.1349C14.7548 9.62218 16.46 9.01087 17.9582 8.99957L18.0045 8.99939C19.9797 8.9953 21.7966 10.0826 22.7639 11.8047L24.187 14.3383C25.2548 16.5628 25.7907 18.6081 24.167 20.235L19.3819 25.1949C19.3819 25.1949 20.8677 30.7358 25.1954 35.0719Z" stroke="#1A823F" stroke-width="3" stroke-miterlimit="10" stroke-linecap="round"/>
<path d="M51.0005 28.5757C51.0005 17.764 42.236 8.99949 31.4243 8.99949" stroke="#1A823F" stroke-width="3" stroke-miterlimit="10"/>
<path d="M36.7633 28.5757C36.7633 25.6271 34.3729 23.2367 31.4243 23.2367" stroke="#1A823F" stroke-width="3" stroke-miterlimit="10"/>
<path d="M43.8819 28.5757C43.8819 21.6955 38.3045 16.1181 31.4243 16.1181" stroke="#1A823F" stroke-width="3" stroke-miterlimit="10"/>
</svg>
