<svg id="svg-location" viewBox="0 0 20 20" fill="currentColor" xmlns="http://www.w3.org/2000/svg">
<path fill-rule="evenodd" clip-rule="evenodd" d="M10.7942 17.5385C10.5289 17.8016 10.2618 18.0664 9.99479 18.3334C9.72776 18.0664 9.46073 17.8016 9.19541 17.5385C6.14879 14.5174 3.32812 11.7204 3.32812 8.33342C3.32812 4.65152 6.31289 1.66675 9.99479 1.66675C13.6767 1.66675 16.6615 4.65152 16.6615 8.33342C16.6615 11.7204 13.8408 14.5174 10.7942 17.5385ZM9.99479 10.8334C11.3755 10.8334 12.4948 9.71413 12.4948 8.33342C12.4948 6.9527 11.3755 5.83342 9.99479 5.83342C8.61408 5.83342 7.49479 6.9527 7.49479 8.33342C7.49479 9.71413 8.61408 10.8334 9.99479 10.8334Z"/>
</svg>