<svg width="60" height="60" viewBox="0 0 60 60" fill="none" xmlns="http://www.w3.org/2000/svg">
<path d="M39.9763 21.9518C39.7074 21.952 39.4454 21.8661 39.2288 21.7068L33.6409 17.6207C33.0756 17.208 32.952 16.4153 33.3647 15.8502L33.3673 15.8468L36.8062 11.1475C37.2189 10.5822 38.0116 10.4586 38.5767 10.8713L38.5801 10.8738L44.1638 14.9599C44.7291 15.3726 44.8527 16.1652 44.44 16.7304L44.4375 16.7338L40.9985 21.4331C40.8809 21.5938 40.727 21.7245 40.5494 21.8146C40.3718 21.9047 40.1755 21.9517 39.9763 21.9518ZM36.1649 16.3241L39.7035 18.9133L41.6464 16.2591L38.1086 13.6699L36.1649 16.3241Z" fill="white"/>
<path d="M45.4976 18.1862C44.7025 18.187 43.9279 17.9337 43.287 17.4631L36.4598 12.4665C34.7912 11.2433 34.4284 8.89982 35.6489 7.22912L36.1557 6.53811C37.3803 4.86867 39.7251 4.50559 41.3973 5.72629L48.2253 10.7238C49.8966 11.9473 50.2597 14.294 49.0363 15.9654L48.5294 16.6564C48.1801 17.132 47.7235 17.5184 47.1967 17.7842C46.6698 18.05 46.0877 18.1878 45.4976 18.1862ZM37.9566 10.4213L44.7837 15.4179C45.3252 15.8127 46.084 15.6952 46.4808 15.1552L46.9876 14.4642C47.3843 13.922 47.2667 13.161 46.7249 12.7637L39.8995 7.76711C39.3576 7.37336 38.5994 7.49113 38.2024 8.03068L37.6956 8.7217C37.299 9.26359 37.4165 10.0244 37.9582 10.4213H37.9566ZM40.7248 19.6619L35.1419 15.5759L35.1415 15.5756C33.5045 14.3778 31.2064 14.7338 30.0084 16.3708L22.9034 26.0735C21.9692 27.3505 21.9802 29.0295 22.8067 30.2753L19.5992 34.6614C18.3605 36.3564 18.7283 38.7342 20.4211 39.9757L21.9121 41.0671C22.5621 41.5436 23.3472 41.8002 24.1532 41.7995C24.7513 41.8007 25.3413 41.6607 25.8751 41.3909C26.409 41.1211 26.8716 40.7292 27.2254 40.2469L30.435 35.8589C30.7631 35.9536 31.103 36.0016 31.4445 36.0017C31.6348 36.0022 31.8248 35.988 32.013 35.9594C32.4902 35.8871 32.9483 35.7208 33.3607 35.4701C33.7732 35.2194 34.1317 34.8892 34.4155 34.4988L41.5197 24.7962C42.7175 23.1588 42.3617 20.8605 40.7248 19.6619ZM25.183 38.7517L25.1803 38.7552C24.766 39.3192 23.973 39.4405 23.4089 39.0262L21.918 37.9348L21.9145 37.9321C21.3505 37.5178 21.2291 36.7247 21.6435 36.1608L24.7199 31.9547L28.2619 34.5446L25.183 38.7517ZM39.4696 23.2993L32.3738 33.0029L32.3693 33.0089C32.0184 33.4821 31.3704 33.6048 30.8747 33.3106C30.8451 33.2845 25.1408 29.11 25.111 29.0917C24.6783 28.706 24.6006 28.0482 24.9486 27.5703L32.052 17.8643C32.1581 17.7196 32.2969 17.6019 32.457 17.5209C32.6172 17.4399 32.7941 17.3978 32.9736 17.398L32.9719 17.4005C33.2127 17.4009 33.4471 17.4781 33.641 17.621L39.223 21.7071L39.2254 21.7088C39.732 22.0806 39.8414 22.7927 39.4696 23.2993Z" fill="white"/>
<path d="M39.9764 21.9518C39.7074 21.952 39.4455 21.8661 39.2288 21.7068L33.6409 17.6207C33.0757 17.208 32.9521 16.4153 33.3648 15.8502L33.3673 15.8468L36.8063 11.1475C37.219 10.5822 38.0116 10.4586 38.5768 10.8713L38.5802 10.8738L44.1639 14.9599C44.7291 15.3726 44.8528 16.1652 44.4401 16.7304L44.4375 16.7338L40.9986 21.4331C40.8809 21.5938 40.7271 21.7245 40.5495 21.8146C40.3719 21.9047 40.1755 21.9517 39.9764 21.9518ZM36.165 16.3241L39.7035 18.9133L41.6464 16.2591L38.1086 13.6699L36.165 16.3241ZM39.3217 54.9996H14.1324C11.9836 54.9998 10.2414 53.2579 10.2413 51.109C10.2413 50.8631 10.2646 50.6178 10.3109 50.3763L11.0103 46.7295C11.0652 46.4396 11.2195 46.1779 11.4467 45.9897C11.6738 45.8014 11.9596 45.6982 12.2546 45.6981H29.7668C30.4666 45.6981 31.0339 46.2653 31.0339 46.9651C31.0339 47.665 30.4666 48.2322 29.7668 48.2322H13.3021L12.8003 50.8509C12.658 51.5865 13.139 52.2982 13.8746 52.4405C13.9596 52.457 14.0459 52.4652 14.1324 52.4652H39.3217C40.0714 52.4636 40.6779 51.8545 40.6762 51.1048C40.676 51.0205 40.668 50.9364 40.6522 50.8535L39.9528 47.2043C39.8217 46.5161 40.2733 45.8521 40.9613 45.7209C41.6495 45.5899 42.3136 46.0414 42.4447 46.7295L43.1434 50.3787C43.5479 52.4892 42.1649 54.5279 40.0544 54.9324C39.8129 54.9787 39.5676 55.002 39.3217 55.002V54.9996Z" fill="white"/>
<path d="M41.1986 48.2335C40.4988 48.2335 39.9315 47.6662 39.9315 46.9664C39.9315 46.6922 40.0205 46.4254 40.185 46.2061C42.0949 43.6719 43.1044 40.6266 43.1044 37.3879C43.1044 33.2581 41.3997 29.3419 38.4279 26.6446C37.9094 26.1734 37.871 25.3711 38.3422 24.8525C38.8134 24.3339 39.6157 24.2956 40.1343 24.7668C43.6349 27.9429 45.642 32.5434 45.642 37.3863C45.642 41.18 44.4552 44.7575 42.2115 47.7309C42.0931 47.8874 41.94 48.0142 41.7642 48.1014C41.5885 48.1886 41.3948 48.2338 41.1986 48.2335Z" fill="white"/>
<path d="M29.767 48.2325C29.0672 48.2325 28.4999 47.6652 28.4999 46.9654C28.4999 46.2656 29.0672 45.6983 29.767 45.6983C33.9062 45.6983 37.2801 41.9688 37.2801 37.3845C37.2802 36.8358 37.231 36.2881 37.1331 35.7482C37.0081 35.0597 37.4649 34.4001 38.1535 34.275C38.8421 34.15 39.5016 34.6068 39.6267 35.2954C39.7515 35.9859 39.8143 36.6861 39.8142 37.3878C39.8142 43.3668 35.3067 48.2325 29.767 48.2325Z" fill="white"/>
</svg>
