<svg width="60" height="60" viewBox="0 0 60 60" fill="none" xmlns="http://www.w3.org/2000/svg">
<path d="M25.2949 44.5772C25.3059 44.6752 25.3109 44.7742 25.3109 44.8742C25.3109 45.0632 25.3109 45.2492 25.3099 45.4312C25.2999 45.3342 25.2949 45.2352 25.2949 45.1362V44.5772Z" stroke="#1A823F" stroke-width="3" stroke-miterlimit="10" stroke-linecap="round" stroke-linejoin="round"/>
<path d="M45.718 11.9253H33.676V5.90031H45.718V11.9253Z" stroke="#1A823F" stroke-width="3" stroke-miterlimit="10" stroke-linecap="round" stroke-linejoin="round"/>
<path d="M54.0998 11.8513V45.1362C54.0998 46.7592 52.7838 48.0752 51.1608 48.0752H34.5149C35.4539 46.0852 36.2679 43.9072 36.8999 42.0502C37.5759 40.0662 38.0439 38.4482 38.2379 37.8212C38.4229 37.2202 38.5719 36.6212 38.6899 36.0252C38.9669 34.6132 39.0719 33.2202 39.0779 31.8712C39.0814 31.2434 39.0234 30.6168 38.9049 30.0002C38.4369 27.5403 37.0399 25.3943 35.0929 23.9753C33.5239 22.8313 31.5969 22.1603 29.5109 22.1793C28.0379 22.1923 26.6439 22.5423 25.4049 23.1553C25.3689 23.1733 25.3319 23.1913 25.2949 23.2073V11.8513C25.2949 10.2283 26.6099 8.91231 28.2329 8.91231H33.6759V11.9253H45.7179V8.91231H51.1608C52.7838 8.91231 54.0998 10.2283 54.0998 11.8513Z" stroke="#1A823F" stroke-width="3" stroke-miterlimit="10" stroke-linecap="round" stroke-linejoin="round"/>
<path d="M45.7183 17.9502H33.676" stroke="#1A823F" stroke-width="3" stroke-miterlimit="10" stroke-linecap="round" stroke-linejoin="round"/>
<path d="M45.7185 23.9751H35.688" stroke="#1A823F" stroke-width="3" stroke-miterlimit="10" stroke-linecap="round" stroke-linejoin="round"/>
<path d="M45.7183 30H38.9048" stroke="#1A823F" stroke-width="3" stroke-miterlimit="10" stroke-linecap="round" stroke-linejoin="round"/>
<path d="M45.7183 36.0249H39.0779" stroke="#1A823F" stroke-width="3" stroke-miterlimit="10" stroke-linecap="round" stroke-linejoin="round"/>
<path d="M45.7185 42.0498H37.5" stroke="#1A823F" stroke-width="3" stroke-miterlimit="10" stroke-linecap="round" stroke-linejoin="round"/>
<path d="M39.0779 31.8712C39.0719 33.2202 38.9669 34.6132 38.6899 36.0252C38.5719 36.6212 38.4229 37.2201 38.2379 37.8211C38.0439 38.4481 37.5759 40.0661 36.8999 42.0501C36.2679 43.9071 35.4539 46.0851 34.5149 48.0751C32.9739 51.3411 31.0959 54.1001 29.1279 54.1001C24.944 54.1001 25.287 51.8021 25.31 45.4371V45.4311C25.311 45.2491 25.311 45.0631 25.311 44.8741C25.311 44.7741 25.306 44.6751 25.295 44.5771C25.145 43.1331 23.907 42.0131 22.415 42.0511C20.874 42.0901 19.666 43.3941 19.667 44.9371C19.67 51.6821 20.141 54.1001 15.85 54.1001C11.401 54.1001 7.41101 40.0001 6.74001 37.8211C6.11601 35.7972 5.90901 33.7902 5.90001 31.8712C5.87501 26.5562 10.155 22.1312 15.467 22.1792C16.94 22.1922 18.334 22.5422 19.573 23.1552C21.378 24.0482 23.479 24.0662 25.295 23.2072C25.332 23.1912 25.369 23.1732 25.405 23.1552C26.6439 22.5422 28.0379 22.1922 29.5109 22.1792C31.5969 22.1602 33.5239 22.8312 35.0929 23.9752C37.0399 25.3942 38.4369 27.5402 38.9049 30.0002C39.0235 30.6167 39.0814 31.2434 39.0779 31.8712Z" stroke="#1A823F" stroke-width="3" stroke-miterlimit="10" stroke-linecap="round" stroke-linejoin="round"/>
</svg>
